# xmcd CD database file
#
# Track frame offsets:
#	150
#	21458
#	39003
#	58596
#	78580
#	96573
#	115136
#	135318
#	155250
#	178875
#	201380
#	217888
#	244611
#
# Disc length: 3511 seconds
#
# Revision: 0
# Processed by: cddbd v1.4PL0 Copyright (c) Steve Scherf et al.
# Submitted via: Feurio! 1.62.5ß - http://www.feurio.com
#
DISCID=ae0db50d
DTITLE=Pino Daniele - Medina
DYEAR=2001
DGENRE=Blues
TTITLE0=Via Medina
TTITLE1=Evviva o 'rrè
TTITLE2=Tempo di cambiare
TTITLE3=Sara
TTITLE4=Senza e te
TTITLE5=Mareluna 
TTITLE6=Lettera dal cuore
TTITLE7=Acqua passata
TTITLE8=Galby
TTITLE9=Gente di frontiera
TTITLE10=Lacrima di sale
TTITLE11=Africa a Africa
TTITLE12=Traccia interattiva
EXTD=
EXTT0=
EXTT1=
EXTT2=
EXTT3=
EXTT4=
EXTT5=
EXTT6=
EXTT7=
EXTT8=
EXTT9=
EXTT10=
EXTT11=
EXTT12=
PLAYORDER=
